<svg width="103" height="20" viewBox="0 0 103 20" fill="none" xmlns="http://www.w3.org/2000/svg">
<g clip-path="url(#clip0_1_5)">
<g clip-path="url(#clip1_1_5)">
<path d="M11.2264 1.97673L3.53125 5.6818V7.60937H19.4688V5.67157L11.2264 1.97673ZM18.4062 6.54687H4.59375V6.34945L11.2424 3.14827L18.4062 6.35968V6.54687ZM3.53125 17.9687H19.4688V14.5156H3.53125V17.9687ZM4.59375 15.5781H18.4062V16.9062H4.59375V15.5781ZM5.39062 8.40625H6.45312V13.7187H5.39062V8.40625ZM16.5469 8.40625H17.6094V13.7187H16.5469V8.40625ZM9.10938 8.40625H10.1719V13.7187H9.10938V8.40625ZM12.8281 8.40625H13.8906V13.7187H12.8281V8.40625Z" fill="white"/>
</g>
<path d="M37.6484 4.125C38.7422 4.1875 39.6406 4.60937 40.3438 5.39062C41.0469 6.15625 41.5547 7.03125 41.8672 8.01562C42.1797 9 42.3359 10.0078 42.3359 11.0391C42.3359 12.0703 42.1797 13.0781 41.8672 14.0625C41.5703 15.0469 41.0625 15.9297 40.3438 16.7109C39.6406 17.4766 38.7422 17.8906 37.6484 17.9531H29.0234C28.6016 17.9375 28.2422 17.7891 27.9453 17.5078C27.6641 17.2109 27.5156 16.8516 27.5 16.4297V10.6172C27.5156 10.1797 27.6797 9.82031 27.9922 9.53906C28.3047 9.24219 28.6797 9.09375 29.1172 9.09375C29.5391 9.10938 29.8984 9.26562 30.1953 9.5625C30.4922 9.84375 30.6484 10.1953 30.6641 10.6172V14.1797C30.6641 14.6016 30.8828 14.8125 31.3203 14.8125H36.8516C37.4453 14.7812 37.9375 14.5547 38.3281 14.1328C38.7188 13.7109 39 13.2344 39.1719 12.7031C39.3594 12.1562 39.4531 11.6016 39.4531 11.0391C39.4531 10.4766 39.3594 9.92969 39.1719 9.39844C39 8.85156 38.7188 8.36719 38.3281 7.94531C37.9375 7.52344 37.4453 7.29688 36.8516 7.26562H29.0234C28.0859 7.1875 27.5781 6.67969 27.5 5.74219C27.5 5.30469 27.6406 4.92969 27.9219 4.61719C28.2188 4.30469 28.5859 4.14062 29.0234 4.125H37.6484ZM57.7166 4.125C58.5134 4.14062 59.2244 4.39063 59.8494 4.875C60.4744 5.35938 60.9744 5.9375 61.3494 6.60938C61.74 7.28125 62.0291 7.99219 62.2166 8.74219C62.4041 9.49219 62.4978 10.2578 62.4978 11.0391C62.4978 12.0703 62.3337 13.0859 62.0056 14.0859C61.6931 15.0703 61.1697 15.9453 60.4353 16.7109C59.7166 17.4766 58.8103 17.8906 57.7166 17.9531H49.5369C48.4431 17.9062 47.5291 17.5 46.7947 16.7344C46.0603 15.9688 45.5369 15.0859 45.2244 14.0859C44.9275 13.0859 44.7791 12.0703 44.7791 11.0391C44.7791 10.0078 44.9353 9 45.2478 8.01562C45.5603 7.01562 46.0759 6.13281 46.7947 5.36719C47.5291 4.58594 48.4431 4.17188 49.5369 4.125H49.9822H57.2712H57.7166ZM56.9197 14.8125C57.5134 14.7812 58.0056 14.5625 58.3962 14.1562C58.8025 13.7344 59.0916 13.25 59.2634 12.7031C59.4353 12.1562 59.5212 11.6016 59.5212 11.0391C59.5212 10.4766 59.4275 9.92969 59.24 9.39844C59.0681 8.85156 58.7869 8.36719 58.3962 7.94531C58.0056 7.52344 57.5134 7.29688 56.9197 7.26562H50.2634C49.6697 7.29688 49.1775 7.52344 48.7869 7.94531C48.3962 8.36719 48.1072 8.85156 47.9197 9.39844C47.7478 9.92969 47.6619 10.4766 47.6619 11.0391C47.6619 11.6016 47.7478 12.1562 47.9197 12.7031C48.0916 13.25 48.3728 13.7344 48.7634 14.1562C49.1697 14.5625 49.6697 14.7812 50.2634 14.8125H56.9197ZM70.6362 7.26562C70.0425 7.29688 69.5425 7.52344 69.1362 7.94531C68.7456 8.36719 68.4644 8.85156 68.2925 9.39844C68.1206 9.92969 68.0347 10.4766 68.0347 11.0391C68.0347 11.6016 68.1128 12.1562 68.2691 12.7031C68.4409 13.25 68.73 13.7344 69.1362 14.1562C69.5425 14.5625 70.0425 14.7812 70.6362 14.8125H78.3706C79.355 14.9062 79.8941 15.4453 79.9878 16.4297C79.9722 16.8672 79.8081 17.2344 79.4956 17.5312C79.1831 17.8125 78.8081 17.9531 78.3706 17.9531H70.8941H69.8159C68.7222 17.8906 67.8237 17.4766 67.1206 16.7109C66.4175 15.9297 65.9097 15.0469 65.5972 14.0625C65.3003 13.0781 65.1519 12.0703 65.1519 11.0391C65.1519 10.2734 65.2378 9.51562 65.4097 8.76562C65.5816 8.01562 65.8472 7.30469 66.2066 6.63281C66.5816 5.94531 67.0737 5.35938 67.6831 4.875C68.3081 4.39063 69.0191 4.14062 69.8159 4.125H70.2612H78.3706C79.355 4.21875 79.8941 4.75781 79.9878 5.74219C79.9878 6.17969 79.8237 6.54688 79.4956 6.84375C79.1831 7.125 78.8081 7.26562 78.3706 7.26562H70.6362ZM97.5481 5.69531C97.5481 6.13281 97.3919 6.5 97.0794 6.79688C96.7825 7.10938 96.4153 7.26562 95.9778 7.26562H86.6028C86.3059 7.28125 86.0559 7.35156 85.8528 7.47656C85.6653 7.58594 85.5247 7.71875 85.4309 7.875C85.3372 8.01562 85.2903 8.16406 85.2903 8.32031C85.2903 8.47656 85.3372 8.63281 85.4309 8.78906C85.5247 8.92969 85.6653 9.0625 85.8528 9.1875C86.0559 9.29688 86.3059 9.35938 86.6028 9.375H93.2591C94.3528 9.40625 95.2513 9.66406 95.9544 10.1484C96.6731 10.6172 97.1809 11.1641 97.4778 11.7891C97.7903 12.3984 97.9466 13.0234 97.9466 13.6641C97.9466 14.2891 97.7903 14.9141 97.4778 15.5391C97.1653 16.1484 96.6575 16.6953 95.9544 17.1797C95.2513 17.6484 94.3528 17.8828 93.2591 17.8828H93.1184C93.0247 17.8984 92.9309 17.9062 92.8372 17.9062H83.9778C83.5403 17.9062 83.1653 17.7578 82.8528 17.4609C82.5559 17.1484 82.4075 16.7734 82.4075 16.3359C82.4075 15.8984 82.5638 15.5312 82.8763 15.2344C83.1731 14.9219 83.5403 14.7656 83.9778 14.7656H93.3997C93.6966 14.7812 93.9388 14.7266 94.1263 14.6016C94.3294 14.4766 94.4778 14.3359 94.5716 14.1797C94.6653 14.0078 94.7122 13.8359 94.7122 13.6641C94.7122 13.5547 94.6653 13.4062 94.5716 13.2188C94.4778 13.0156 94.3294 12.8516 94.1263 12.7266C93.9388 12.6016 93.6966 12.5312 93.3997 12.5156H86.7434C85.6497 12.4844 84.7434 12.2344 84.0247 11.7656C83.3216 11.2969 82.8138 10.7656 82.5013 10.1719C82.2044 9.5625 82.0559 8.94531 82.0559 8.32031C82.0559 7.71094 82.2122 7.10938 82.5247 6.51562C82.8372 5.90625 83.345 5.36719 84.0481 4.89844C84.7513 4.42969 85.6497 4.17969 86.7434 4.14844H86.8841C86.9778 4.13281 87.0716 4.125 87.1653 4.125H95.9778C96.4153 4.125 96.7825 4.28125 97.0794 4.59375C97.3919 4.89062 97.5481 5.25781 97.5481 5.69531Z" fill="white"/>
</g>
<defs>
<clipPath id="clip0_1_5">
<rect width="103" height="20" fill="white"/>
</clipPath>
<clipPath id="clip1_1_5">
<rect width="17" height="17" fill="white" transform="translate(3 1.5)"/>
</clipPath>
</defs>
</svg>
