<?xml version="1.0" standalone="no"?>
<!DOCTYPE svg PUBLIC "-//W3C//DTD SVG 20010904//EN"
 "http://www.w3.org/TR/2001/REC-SVG-20010904/DTD/svg10.dtd">
<svg version="1.0" xmlns="http://www.w3.org/2000/svg"
 width="700.000000pt" height="700.000000pt" viewBox="0 0 700.000000 700.000000"
 preserveAspectRatio="xMidYMid meet">
<metadata>
Created by potrace 1.14, written by Peter Selinger 2001-2017
</metadata>
<g transform="translate(0.000000,700.000000) scale(0.100000,-0.100000)"
fill="#000000" stroke="none">
<path d="M3260 6733 c-41 -20 -154 -74 -250 -121 -96 -46 -220 -106 -275 -132
-55 -26 -181 -87 -280 -135 -203 -99 -398 -192 -560 -270 -60 -29 -182 -87
-270 -130 -401 -194 -555 -268 -830 -400 -467 -224 -501 -242 -519 -278 -14
-31 -16 -84 -16 -434 0 -435 0 -430 59 -470 l34 -23 3123 2 3124 3 32 33 33
32 3 418 3 418 -23 34 c-24 36 -5 26 -548 270 -58 26 -125 56 -150 68 -63 28
-979 439 -1310 587 -102 45 -220 99 -263 119 -43 20 -80 36 -82 36 -2 0 -36
15 -77 34 -40 18 -206 93 -368 165 -162 73 -315 142 -340 153 -142 66 -154 66
-250 21z m162 -702 c24 -10 72 -32 108 -48 36 -17 99 -45 140 -63 41 -18 112
-50 158 -71 46 -22 85 -39 87 -39 3 0 77 -33 215 -97 30 -14 91 -41 135 -60
44 -19 103 -45 130 -58 57 -27 1114 -501 1196 -536 69 -30 125 -58 119 -59
-19 -5 -4513 -4 -4515 1 -2 3 42 27 98 54 56 27 199 96 317 153 118 57 260
126 315 152 209 100 537 257 785 377 85 42 209 101 275 133 66 32 176 85 245
119 69 33 130 61 137 61 6 0 31 -8 55 -19z"/>
<path d="M1040 4259 c-64 -39 -60 27 -60 -1135 0 -1054 0 -1057 21 -1090 35
-56 43 -58 294 -60 264 -1 289 4 322 64 20 36 20 52 19 1097 -1 970 -2 1062
-18 1083 -39 56 -44 57 -306 58 -216 0 -246 -1 -272 -17z"/>
<path d="M2477 4256 c-63 -43 -60 21 -59 -1138 l0 -1058 26 -34 c14 -19 38
-38 53 -43 15 -5 132 -9 258 -9 252 1 263 3 302 63 17 25 18 92 18 1067 1 573
-2 1056 -6 1075 -4 19 -22 48 -39 65 l-30 31 -246 1 c-235 1 -246 1 -277 -20z"/>
<path d="M3928 4261 c-17 -9 -41 -28 -52 -43 -20 -27 -20 -42 -20 -1092 0
-983 2 -1066 17 -1090 39 -59 50 -61 305 -62 256 0 275 3 316 58 19 27 19 44
19 1080 0 793 -3 1062 -12 1088 -6 19 -24 44 -39 55 -25 19 -44 20 -265 21
-200 1 -243 -2 -269 -15z"/>
<path d="M5390 4273 c-40 -11 -61 -30 -78 -67 -18 -39 -19 -87 -18 -1093 1
-1046 1 -1052 22 -1080 41 -56 59 -59 316 -59 259 1 271 4 304 68 15 29 16
125 16 1042 0 556 -1 1035 -1 1064 -1 45 -6 57 -35 90 l-34 37 -239 1 c-131 0
-245 -1 -253 -3z"/>
<path d="M323 1894 c-65 -32 -63 -9 -63 -772 0 -406 4 -701 9 -715 6 -14 25
-37 44 -51 l35 -27 3115 0 c3447 0 3157 -6 3191 65 14 30 16 107 16 731 0 766
3 731 -60 769 -26 15 -277 16 -3142 16 -2806 0 -3116 -2 -3145 -16z m5688
-654 c4 -47 3 -243 -1 -248 -3 -4 -1149 -7 -2548 -7 -2535 0 -2542 0 -2543 20
-1 25 -1 227 0 240 1 7 857 10 2546 10 2255 0 2545 -2 2546 -15z"/>
</g>
</svg>
